<svg width="165" height="29" viewBox="0 0 165 29" fill="none" xmlns="http://www.w3.org/2000/svg">
<path d="M44.1674 1.59443C40.539 1.59443 37.1813 1.97353 33.4987 1.54028C30.818 1.21534 28.1914 0.646705 25.5107 0.375925C21.7739 0.023911 17.0082 -0.707194 13.813 1.81106C8.28908 6.14354 15.0586 11.9382 18.9578 7.09127C19.012 7.01003 18.9037 6.9288 18.8495 6.98296C13.3527 10.3406 10.2929 4.81672 15.4918 1.67567C16.1417 1.45905 16.7916 1.24242 17.4414 1.0258C18.8495 0.755019 20.42 0.944563 21.8552 1.05287C24.4276 1.2695 26.9729 1.7569 29.5182 2.21723C29.8432 2.27138 30.0869 2.32554 30.4389 2.40677C27.0541 3.78775 24.3734 6.9288 22.3155 9.82615C21.6385 10.7739 20.5825 12.0465 19.6348 13.4817C17.9018 13.4275 16.3854 13.3734 14.6524 13.3192C14.6253 13.4817 14.6524 13.59 14.6253 13.8337C16.25 13.942 17.3331 13.9962 19.2827 14.1315C11.4572 23.1756 7.0435 29.4577 0.382312 23.4464C0.192766 23.2568 -0.132171 23.2839 0.0573753 23.5547C3.30673 28.4287 9.7513 26.777 13.2985 23.1756C16.0875 20.3324 18.2267 17.7058 20.8533 14.2128C22.2342 14.3211 23.182 14.3752 24.6713 14.4836C23.182 16.2165 21.124 18.7348 20.1492 20.7386C20.4471 20.874 20.8803 20.901 21.2865 20.7927C22.9383 18.816 24.563 16.5415 26.0522 14.4836C26.2689 14.1586 26.0522 13.6712 25.6461 13.6712C24.2109 13.6712 22.7487 13.6171 21.3136 13.59C21.3948 13.4817 21.4761 13.3734 21.5302 13.265C24.6171 8.55348 27.7311 4.43762 32.8759 2.8671C36.8293 3.51697 40.7285 3.86899 44.2757 1.89229C44.384 1.83814 44.3028 1.67567 44.1945 1.67567L44.1674 1.59443Z" fill="white"/>
<path d="M33.8239 11.6675C34.3113 11.8029 34.7987 11.4238 34.7987 10.9093C34.7987 10.3948 34.3113 10.0428 33.8239 10.1511C33.6885 10.1782 33.5531 10.2323 33.4177 10.3136C32.9845 10.6114 32.9845 11.1801 33.4177 11.4779C33.5531 11.5592 33.6614 11.6133 33.8239 11.6404V11.6675Z" fill="white"/>
<path d="M42.9218 16.2708C44.9798 15.3772 47.2002 14.2129 49.0415 12.8319C52.02 10.6115 55.838 7.55167 57.4627 4.05861C59.1145 0.484318 55.7297 0.538478 53.0761 2.02777C48.5811 4.60018 46.6044 7.93077 43.3551 12.5611C42.5969 13.6442 41.7033 15.0523 40.6202 16.4603C38.1561 17.5705 34.9067 18.789 33.3904 21.1177H34.1215C35.5295 19.1952 37.9124 18.437 39.9703 17.4622C38.4269 19.6285 37.0188 21.9572 37.1542 24.0963C37.3167 27.1291 38.8331 28.3205 41.7575 28.3205C44.6819 28.3205 48.527 22.8507 49.7184 21.0907C49.583 21.0907 49.231 21.0907 49.0144 21.0907C47.1731 23.5818 44.5465 27.454 41.8929 27.6435C37.9936 27.9143 35.9357 24.692 42.9489 16.2166L42.9218 16.2708ZM56.8128 2.24439C57.6523 5.33128 48.4187 13.0485 43.4634 15.0252C47.9313 7.09135 56.0547 -0.571718 56.8128 2.24439Z" fill="white"/>
<path d="M72.87 21.2532C72.4097 21.8489 68.4834 28.6997 65.6944 27.6436C64.178 26.8042 67.4273 22.7425 68.2126 21.6594C71.1912 17.5706 71.5161 15.7835 69.9456 15.0524C68.4563 14.3483 65.5319 15.3502 64.6112 16.7583C64.3675 13.888 59.8184 14.7003 58.1667 16.7041C58.2479 16.1896 57.571 14.8357 56.0546 14.8357C53.0219 14.8357 50.6932 18.8162 48.906 21.2532H49.6371C50.9098 19.6015 54.457 14.8357 56.6232 15.6751C57.7876 16.1084 56.4608 17.8955 56.0004 18.6808C54.1862 21.6865 51.2076 25.3691 49.3393 28.3476C49.4205 28.5913 50.8285 28.5914 51.0181 28.4018C52.8052 25.7211 57.7334 18.9787 58.4375 17.9226C59.7914 15.7293 64.6383 14.8628 62.8241 18.3017C61.0369 21.3344 57.5439 25.2066 55.865 28.3206C55.9192 28.5913 57.0023 28.5913 57.571 28.4289C59.2227 25.694 64.2863 18.9245 64.8549 18.0038C65.9381 16.4062 71.2995 14.1046 68.8083 18.1934C68.1855 19.4661 67.0212 20.82 66.2901 22.0385C65.559 23.2841 63.0136 26.1543 64.0426 27.6978C64.882 28.7809 66.7775 28.5372 67.8606 28.0769C70.4601 26.9396 72.4097 22.932 73.6011 21.2803H72.87V21.2532Z" fill="white"/>
<path d="M164.069 18.3288C163.933 18.8704 163.663 19.412 163.365 19.6557C163.338 19.6827 161.875 19.7098 161.442 19.7098C158.572 19.7098 155.675 19.7098 152.804 19.5473C153.238 19.087 153.671 18.6809 154.131 18.3288H152.1C152.1 18.3288 152.1 18.3288 152.073 18.3559C150.259 20.3055 148.039 23.2029 149.311 25.9919C150.232 27.9686 152.506 28.7539 154.537 28.7809C157.597 28.8351 159.845 27.5354 161.686 25.2337C161.713 25.1796 161.55 25.1525 161.496 25.1796C158.951 28.0228 149.149 29.8911 150.448 23.7444C150.692 22.553 152.29 20.1701 152.317 20.1701C152.317 20.1701 162.769 20.7117 163.581 20.1701C164.042 19.8723 164.475 19.087 164.746 18.3018H164.042L164.069 18.3288Z" fill="white"/>
<path d="M152.398 17.6518C152.913 17.3539 153.454 17.0561 154.05 16.7311C153.644 17.029 153.238 17.3269 152.859 17.6518H155.106C155.485 17.4081 155.891 17.1644 156.243 16.9478C157.787 16.0813 163.311 14.4024 164.123 16.9478C164.177 17.1373 164.204 17.381 164.177 17.6518H164.935C164.989 17.4081 165.017 17.1644 164.99 16.9748C164.854 15.296 163.148 14.7815 161.713 14.5649C159.845 14.2941 158.572 14.4024 156.704 14.9711C154.7 15.6209 152.75 16.4874 150.936 17.6247H152.398V17.6518Z" fill="white"/>
<path d="M122.017 17.652C122.504 17.2729 122.964 16.948 123.344 16.7313C123.154 16.975 122.937 17.3 122.721 17.652H124.345C124.779 17.0563 125.266 16.4064 125.808 15.7565C128.407 14.4026 130.248 15.5399 130.844 17.652H131.629C131.467 17.0021 131.196 16.3793 130.763 15.8378C130.113 14.9983 129.057 14.4839 127.866 14.6463C129.301 13.7798 132.712 11.9656 134.012 10.9096C135.745 9.52859 139.942 5.79182 139.699 2.51539C139.563 0.674083 137.532 0.782395 135.799 1.62181C130.763 4.08591 126.62 10.5305 123.831 15.3504C122.721 16.0273 121.638 16.7313 120.582 17.652H122.017ZM128.976 10.2055C130.086 8.60793 131.25 7.06449 132.469 5.5752C132.794 5.16903 137.993 -0.0570249 138.697 3.08402C139.022 4.51916 135.989 7.93098 135.014 8.87871C133.389 10.3951 130.303 11.9385 128.434 13.0216C127.73 13.4278 127.026 13.834 126.322 14.2672C127.189 12.9133 128.055 11.5594 128.976 10.2326V10.2055Z" fill="white"/>
<path d="M109.046 17.6519C109.94 17.1103 110.915 16.6229 111.944 16.4063C111.673 16.7312 111.321 17.1645 110.915 17.6519H112.648C113.758 16.4334 114.949 15.269 115.978 14.2942C116.547 13.7797 114.814 14.1047 114.11 14.4296C113.731 14.5921 110.59 15.6481 107.774 17.6519H109.019H109.046Z" fill="white"/>
<path d="M136.124 17.6519H139.455C139.726 17.327 139.996 16.975 140.267 16.623C142.325 15.7294 144.546 14.565 146.387 13.1841C149.365 10.9637 153.183 7.90385 154.808 4.41079C156.46 0.836494 153.075 0.89065 150.421 2.37994C145.926 4.95235 143.95 8.28294 140.7 12.9133C139.942 13.9964 139.049 15.4044 137.966 16.8125C137.37 17.0833 136.747 17.3541 136.097 17.6519H136.124ZM154.185 2.59656C155.025 5.68345 145.791 13.4007 140.836 15.3774C145.304 7.44352 153.427 -0.219551 154.185 2.59656Z" fill="white"/>
<path d="M90.4167 18.3289H88.9004C85.3532 23.5549 81.1832 28.0769 76.4174 25.7482C76.2279 25.667 76.2008 25.9107 76.3633 26.0732C80.6687 29.9995 85.7052 25.0984 89.0899 20.2243C89.5232 19.6015 89.9564 18.9517 90.3897 18.3289H90.4167Z" fill="white"/>
<path d="M149.934 18.3288C148.634 19.2495 147.443 20.2785 146.36 21.497C146.36 21.497 146.333 21.5511 146.306 21.5782C146.306 21.6053 146.252 21.6323 146.224 21.6594C144.383 24.1506 141.811 27.8874 139.211 28.0498C135.583 28.2935 133.552 25.5316 138.913 18.3288H136.937C135.529 20.3597 134.337 22.4989 134.446 24.4755C134.608 27.5083 136.124 28.6997 139.049 28.6997C141.973 28.6997 145.683 23.4195 146.929 21.5782C148.634 20.1431 149.88 19.1953 151.234 18.3018H149.853L149.934 18.3288Z" fill="white"/>
<path d="M106.934 18.3288C106.257 18.8704 105.662 19.4661 105.12 20.1431H105.093C104.091 21.6594 103.712 21.9573 102.466 21.9302C102.548 21.7677 102.656 21.6324 102.737 21.4428C103.17 20.5492 103.55 19.439 103.739 18.3288H102.439C102.223 19.5203 101.844 20.6305 101.194 21.8219C99.542 21.4157 97.5653 20.3868 96.0219 20.2243C92.583 19.8723 91.7977 20.0618 89.7668 21.0637C86.707 22.553 86.0572 25.667 89.2794 26.8584C93.9098 28.5914 99.3795 26.5064 102.087 22.5801C103.793 22.8238 104.416 22.1468 105.635 20.4138C106.095 20.0077 106.961 19.1412 108.099 18.3018H106.961L106.934 18.3288ZM98.8921 24.3131C96.78 25.8024 94.2347 26.6959 91.6352 26.5064C90.525 26.4252 87.032 25.7211 88.0339 23.5549C88.9004 21.7136 92.0414 20.6846 93.7202 20.6575C95.8323 20.6034 98.3235 21.524 100.3 22.1468C100.381 22.1468 100.815 22.2822 100.869 22.3093C100.408 23.1758 99.4337 23.934 98.8921 24.3131Z" fill="white"/>
<path d="M134.716 18.3289C133.606 18.8975 132.55 19.5474 131.71 20.3326C131.819 19.6557 131.819 18.9787 131.738 18.3289H130.952C131.033 18.8433 131.033 19.3578 130.979 19.9265C130.6 22.7155 129.003 24.9359 127.865 25.8295C122.531 29.837 118.199 26.6689 123.858 18.3289H122.287C120.663 21.0096 118.713 25.3421 121.015 27.4541C124.426 29.7287 128.624 26.8584 130.113 24.4485C130.681 23.6632 131.196 22.6072 131.494 21.4699C132.658 19.8994 134.499 19.087 136.26 18.3289H134.716Z" fill="white"/>
<path d="M92.989 8.93266C93.0431 8.74311 92.8265 8.77019 92.7182 8.95974C91.8788 10.5573 89.2251 11.5321 88.9814 9.66377C88.819 8.49941 91.4455 2.78596 100.219 2.54226C98.215 4.49187 95.9405 7.60584 94.3429 9.88039C92.8536 11.9925 91.2018 14.8898 89.3605 17.6518H90.8769C91.8788 16.1625 92.9077 14.6461 93.8555 13.1027C94.9657 13.211 96.3466 13.2651 97.8359 13.211C100.408 13.2381 102.791 13.4547 102.575 16.9207C102.575 17.1914 102.548 17.4352 102.493 17.6789H103.793C103.901 16.5957 103.82 15.5397 103.468 14.6461C103.062 13.6172 102.277 13.1027 101.329 12.8319C104.714 12.182 107.692 10.6386 107.936 7.33506C108.18 3.70661 105.553 2.19024 102.602 1.83823C103.36 1.21544 104.253 0.728031 105.12 0.186472C104.66 -0.165542 102.223 0.998813 101.058 1.83823C99.3794 1.83823 96.7528 2.08193 95.5072 2.46102C93.1514 3.19213 87.2755 6.71227 88.494 10.2324C89.3334 12.6423 92.6099 10.7469 93.016 8.93266H92.989ZM101.925 2.51518C109.75 3.38168 105.689 10.8281 102.033 11.8029C100.273 12.534 98.1879 12.6153 94.1262 12.6423C96.3196 9.17636 99.0003 5.25006 101.925 2.4881V2.51518Z" fill="white"/>
<path d="M119.85 18.3288C119.227 18.9246 118.605 19.6286 117.982 20.4409C117.955 20.4951 117.901 20.5763 117.846 20.6305C117.792 20.7117 117.738 20.7659 117.684 20.8471C115.301 23.934 103.576 32.2469 110.156 20.8471C110.671 20.0077 111.348 19.1412 112.106 18.3018H110.427C108.992 20.0889 107.259 22.3905 106.772 23.5007C106.257 24.6651 106.013 25.8836 107.124 26.8313C110.454 29.6745 115.978 24.0152 118.253 21.0637C118.794 20.3868 120.013 19.2766 121.204 18.3018H119.877L119.85 18.3288Z" fill="white"/>
<path d="M32.9032 12.7268L17.198 27.7551H31.0078L32.9032 12.7268Z" fill="url(#paint0_linear_19_3763)"/>
<defs>
<linearGradient id="paint0_linear_19_3763" x1="27.9233" y1="10.3598" x2="23.6672" y2="30.9345" gradientUnits="userSpaceOnUse">
<stop offset="0.141162" stop-color="white" stop-opacity="0.71"/>
<stop offset="0.769693" stop-color="white" stop-opacity="0"/>
</linearGradient>
</defs>
</svg>
