<svg width="21" height="21" viewBox="0 0 21 21" fill="none" xmlns="http://www.w3.org/2000/svg">
<path d="M15.9797 15.3H6.27271L3.90121 2.26095C3.87346 2.1048 3.79201 1.96326 3.67094 1.86082C3.54987 1.75837 3.3968 1.70147 3.23821 1.69995H1.69971" stroke="white" stroke-width="1.8" stroke-linecap="round" stroke-linejoin="round"/>
<path d="M7.13994 18.6999C8.07883 18.6999 8.83994 17.9388 8.83994 16.9999C8.83994 16.061 8.07883 15.2999 7.13994 15.2999C6.20106 15.2999 5.43994 16.061 5.43994 16.9999C5.43994 17.9388 6.20106 18.6999 7.13994 18.6999Z" stroke="white" stroke-width="1.8" stroke-linecap="round" stroke-linejoin="round"/>
<path d="M15.9798 18.6999C16.9187 18.6999 17.6798 17.9388 17.6798 16.9999C17.6798 16.061 16.9187 15.2999 15.9798 15.2999C15.0409 15.2999 14.2798 16.061 14.2798 16.9999C14.2798 17.9388 15.0409 18.6999 15.9798 18.6999Z" stroke="white" stroke-width="1.8" stroke-linecap="round" stroke-linejoin="round"/>
<path d="M5.65242 11.9H16.3284C16.6463 11.9009 16.9543 11.7898 17.1984 11.5862C17.4425 11.3825 17.6069 11.0994 17.6629 10.7865L18.6999 5.09998H4.41992" stroke="white" stroke-width="1.8" stroke-linecap="round" stroke-linejoin="round"/>
</svg>
