<svg width="83" height="16" viewBox="0 0 83 16" fill="none" xmlns="http://www.w3.org/2000/svg">
<path d="M25.8311 6.70898C26.1273 6.75977 26.4193 6.78516 26.707 6.78516C27.3841 6.78516 27.8983 6.61165 28.2495 6.26465C28.605 5.91341 28.7827 5.37809 28.7827 4.65869C28.7827 3.96891 28.6134 3.45475 28.2749 3.11621C27.9406 2.77767 27.4116 2.6084 26.688 2.6084C26.4045 2.6084 26.1188 2.62533 25.8311 2.65918V6.70898ZM25.8311 9.05127C25.8311 9.30518 25.8311 9.53369 25.8311 9.73682C25.8353 9.93994 25.8395 10.1219 25.8438 10.2827C25.848 10.38 25.903 10.4456 26.0088 10.4795L26.8848 10.7461L26.8975 11.019C26.2839 11.0063 25.7253 11 25.2217 11C24.7096 11 24.1849 11.0063 23.6475 11.019L23.6221 10.7461L24.4028 10.5112C24.5129 10.4774 24.57 10.4118 24.5742 10.3145C24.5785 10.1452 24.5806 9.95687 24.5806 9.74951C24.5848 9.53792 24.5869 9.30518 24.5869 9.05127V3.90332C24.5869 3.6875 24.5848 3.49284 24.5806 3.31934C24.5806 3.14583 24.5785 2.98926 24.5742 2.84961C24.57 2.73958 24.5192 2.66764 24.4219 2.63379L23.6348 2.38623L23.6221 2.11328C24.168 2.13021 24.6991 2.13867 25.2153 2.13867C25.5623 2.13867 25.8966 2.13021 26.2183 2.11328C26.5441 2.09635 26.8403 2.08789 27.1069 2.08789C28.1014 2.08789 28.8525 2.28467 29.3604 2.67822C29.8724 3.06755 30.1284 3.64941 30.1284 4.42383C30.1284 5.33366 29.8343 6.04036 29.2461 6.54395C28.6579 7.04753 27.8327 7.29932 26.7705 7.29932C26.4785 7.29932 26.1654 7.28027 25.8311 7.24219V9.05127ZM30.9219 2.09424L30.8901 1.88477C31.6392 1.74089 32.3289 1.59066 32.9595 1.43408L33.0166 1.48486C32.9912 2.17464 32.9785 3.13314 32.9785 4.36035V8.49268C32.9785 9.25016 32.9827 9.85954 32.9912 10.3208C33.0039 10.4435 33.0632 10.5197 33.1689 10.5493L33.8608 10.7588L33.8799 11.019C33.3086 11.0063 32.8156 11 32.4009 11C31.9862 11 31.4953 11.0063 30.9282 11.019L30.9028 10.7588L31.6201 10.5493C31.7259 10.5155 31.783 10.4478 31.7915 10.3462C31.8 9.868 31.8042 9.3348 31.8042 8.74658V6.1377C31.8042 4.56348 31.7957 3.30029 31.7788 2.34814L30.9219 2.09424ZM38.1392 8.12451C37.2124 8.12451 36.5798 8.21549 36.2412 8.39746C35.9027 8.57943 35.7334 8.88623 35.7334 9.31787C35.7334 9.71989 35.8455 10.0055 36.0698 10.1748C36.2941 10.3398 36.5988 10.4224 36.9839 10.4224C37.4198 10.4224 37.8006 10.3483 38.1265 10.2002L38.1392 8.12451ZM35.0605 5.50928C35.8857 5.14958 36.6157 4.96973 37.2505 4.96973C37.8979 4.96973 38.4015 5.139 38.7612 5.47754C39.1252 5.81608 39.305 6.30485 39.3008 6.94385L39.269 9.58447C39.2648 9.80029 39.269 9.9738 39.2817 10.105C39.2987 10.2362 39.3368 10.3377 39.396 10.4097C39.4595 10.4774 39.5526 10.526 39.6753 10.5557C39.798 10.5811 39.9631 10.5959 40.1704 10.6001L40.2021 10.8477C40.0202 10.9196 39.798 10.9915 39.5356 11.0635C39.2733 11.1354 39.0955 11.1714 39.0024 11.1714C38.592 11.1714 38.3105 10.9598 38.1582 10.5366C37.5658 10.964 37.0072 11.1777 36.4824 11.1777C35.8942 11.1777 35.4202 11.0339 35.0605 10.7461C34.7051 10.4541 34.5273 10.0436 34.5273 9.51465C34.5273 8.86296 34.8172 8.38265 35.397 8.07373C35.981 7.76481 36.895 7.61035 38.1392 7.61035L38.1455 7.11523C38.1497 6.64128 38.0291 6.29004 37.7837 6.06152C37.5382 5.83301 37.1616 5.71875 36.6538 5.71875C36.2687 5.71875 35.7863 5.79069 35.2065 5.93457L35.0605 5.50928ZM39.9927 5.11572C40.5259 5.12842 40.9998 5.13477 41.4146 5.13477C41.6981 5.13477 42.1509 5.12842 42.7729 5.11572L42.7983 5.37598L42.0557 5.5791C42.2122 6.02344 42.3942 6.51432 42.6016 7.05176C42.8089 7.58496 43.029 8.14144 43.2617 8.72119C43.359 8.9624 43.4648 9.23958 43.5791 9.55273C43.6976 9.23535 43.8245 8.91162 43.96 8.58154C44.1589 8.09066 44.3514 7.60824 44.5376 7.13428C44.7238 6.65609 44.9163 6.1377 45.1152 5.5791L44.3916 5.37598L44.3662 5.11572C44.6794 5.12842 45.0454 5.13477 45.4644 5.13477C45.841 5.13477 46.207 5.12842 46.5625 5.11572L46.5942 5.37598L46.0039 5.54102C45.8727 5.58333 45.7775 5.67008 45.7183 5.80127C45.5617 6.16097 45.3924 6.55452 45.2104 6.98193C44.6519 8.29378 44.2287 9.36865 43.9409 10.2065C43.7463 10.7736 43.5706 11.3534 43.4141 11.9458C43.2575 12.5425 43.1369 13.0545 43.0522 13.4819C43.0142 13.6893 42.9359 13.8459 42.8174 13.9517C42.7031 14.0617 42.4323 14.1167 42.0049 14.1167C41.569 14.1167 41.1458 14.1019 40.7354 14.0723L40.7036 13.8247C41.1691 13.7528 41.514 13.6025 41.7383 13.374C42.0091 13.082 42.4281 12.3055 42.9951 11.0444L43.0459 10.9238L42.957 10.8984C42.1826 8.96875 41.4823 7.27181 40.856 5.80762C40.8009 5.68066 40.7036 5.59391 40.564 5.54736L40.0054 5.37598L39.9927 5.11572ZM53.0815 11.0508L50.2505 3.39551C50.1489 3.11621 50.0537 2.92155 49.9648 2.81152C49.8802 2.69727 49.7511 2.61475 49.5776 2.56396L49 2.38623L48.9873 2.11328C49.4062 2.13021 49.8971 2.13867 50.46 2.13867C51.0312 2.13867 51.6216 2.13021 52.231 2.11328L52.2563 2.38623L51.6597 2.55762C51.575 2.57878 51.5137 2.61051 51.4756 2.65283C51.4375 2.69092 51.4185 2.74805 51.4185 2.82422C51.4185 2.90885 51.4396 3.02311 51.4819 3.16699C51.5285 3.30664 51.592 3.48861 51.6724 3.71289L53.7227 9.42578L55.9507 3.71924C56.0396 3.48649 56.1094 3.30029 56.1602 3.16064C56.2109 3.01676 56.2363 2.90251 56.2363 2.81787C56.2363 2.7417 56.2152 2.68669 56.1729 2.65283C56.1348 2.61475 56.0755 2.58512 55.9951 2.56396L55.4048 2.40527L55.3921 2.11328C55.8534 2.13021 56.3188 2.13867 56.7886 2.13867C57.2583 2.13867 57.709 2.13021 58.1406 2.11328L58.166 2.38623L57.5249 2.58936C57.3768 2.63167 57.2646 2.70361 57.1885 2.80518C57.1123 2.90251 57.0107 3.09928 56.8838 3.39551L53.7163 11L53.0815 11.0508ZM60.3369 2.72266C60.3369 2.94694 60.2671 3.13102 60.1274 3.2749C59.9878 3.41455 59.8079 3.48438 59.5879 3.48438C59.3763 3.48438 59.2028 3.41878 59.0674 3.2876C58.9362 3.15641 58.8706 2.98291 58.8706 2.76709C58.8706 2.53857 58.9404 2.35872 59.0801 2.22754C59.2197 2.09212 59.4038 2.02441 59.6323 2.02441C59.8397 2.02441 60.009 2.08577 60.1401 2.2085C60.2713 2.32699 60.3369 2.49837 60.3369 2.72266ZM58.1914 5.41406C58.932 5.27441 59.6175 5.1263 60.248 4.96973L60.3052 5.01416C60.2798 5.56429 60.2671 6.16943 60.2671 6.82959V9.26709C60.2671 9.7749 60.2713 10.1261 60.2798 10.3208C60.2882 10.4351 60.3411 10.5091 60.4385 10.543L61.1748 10.7588L61.1875 11.019C60.6035 11.0063 60.1042 11 59.6895 11C59.2747 11 58.7817 11.0063 58.2104 11.019L58.1851 10.7588L58.9214 10.543C59.0187 10.5091 59.0716 10.4435 59.0801 10.3462C59.0885 10.1812 59.0928 9.90397 59.0928 9.51465V7.39453C59.0928 6.84017 59.0843 6.32812 59.0674 5.8584L58.2231 5.62988L58.1914 5.41406ZM66.437 5.66797C66.1535 5.5791 65.8361 5.53467 65.4849 5.53467C64.757 5.53467 64.2026 5.74202 63.8218 6.15674C63.4409 6.56722 63.2505 7.19141 63.2505 8.0293C63.2505 8.75293 63.4198 9.33268 63.7583 9.76855C64.0968 10.2002 64.575 10.416 65.1929 10.416C65.5907 10.416 66.0054 10.306 66.437 10.0859V5.66797ZM65.5229 1.88477C66.2762 1.74089 66.966 1.59066 67.5923 1.43408L67.6494 1.48486C67.624 2.39046 67.6113 3.36377 67.6113 4.40479V7.85791C67.6113 8.44189 67.6134 9.01953 67.6177 9.59082C67.6177 9.80664 67.624 9.98014 67.6367 10.1113C67.6536 10.2425 67.6917 10.3441 67.751 10.416C67.8102 10.4837 67.897 10.5303 68.0112 10.5557C68.1297 10.5811 68.2948 10.5959 68.5063 10.6001L68.5381 10.8477C68.3519 10.9196 68.1276 10.9915 67.8652 11.0635C67.6071 11.1354 67.4315 11.1714 67.3384 11.1714C66.911 11.1714 66.6232 10.9302 66.4751 10.4478C65.8192 10.9344 65.1823 11.1777 64.5645 11.1777C63.7816 11.1777 63.1553 10.9006 62.6855 10.3462C62.2201 9.7876 61.9873 9.10205 61.9873 8.28955C61.9873 7.24007 62.2983 6.42757 62.9204 5.85205C63.5425 5.27653 64.4121 4.98877 65.5293 4.98877C65.8001 4.98877 66.1027 5.01839 66.437 5.07764C66.437 4.14242 66.4285 3.23258 66.4116 2.34814L65.5547 2.09424L65.5229 1.88477ZM74.6064 10.5493C74.2467 10.7736 73.8765 10.9344 73.4956 11.0317C73.1147 11.1291 72.7614 11.1777 72.4355 11.1777C71.5046 11.1777 70.7619 10.9132 70.2075 10.3843C69.6532 9.85107 69.376 9.11263 69.376 8.16895C69.376 7.22949 69.6405 6.46143 70.1694 5.86475C70.7026 5.26807 71.4136 4.96973 72.3022 4.96973C73.047 4.96973 73.6268 5.19401 74.0415 5.64258C74.4562 6.08691 74.6636 6.70264 74.6636 7.48975C74.6636 7.60824 74.6572 7.72884 74.6445 7.85156H70.6201C70.6201 8.76139 70.8338 9.41309 71.2612 9.80664C71.6886 10.196 72.3573 10.3906 73.2671 10.3906C73.6733 10.3906 74.1071 10.3525 74.5684 10.2764L74.6064 10.5493ZM73.4004 7.32471V7.13428C73.4004 6.53337 73.3031 6.10384 73.1084 5.8457C72.918 5.58757 72.6323 5.4585 72.2515 5.4585C71.7479 5.4585 71.3628 5.64046 71.0962 6.00439C70.8296 6.36833 70.6794 6.80843 70.6455 7.32471H73.4004ZM76.8979 8.00391C76.8979 8.79525 77.0461 9.44059 77.3423 9.93994C77.6385 10.4351 78.0786 10.6826 78.6626 10.6826C79.2085 10.6826 79.6232 10.4647 79.9067 10.0288C80.1945 9.5887 80.3384 8.93913 80.3384 8.08008C80.3384 7.27181 80.1882 6.63493 79.8877 6.16943C79.5872 5.70394 79.1514 5.47119 78.5801 5.47119C78.0384 5.47119 77.6216 5.68066 77.3296 6.09961C77.0418 6.51855 76.8979 7.15332 76.8979 8.00391ZM81.6333 7.94678C81.6333 8.91162 81.3413 9.69238 80.7573 10.2891C80.1776 10.8815 79.4391 11.1777 78.542 11.1777C77.666 11.1777 76.9572 10.8984 76.4155 10.3398C75.8781 9.77702 75.6094 9.04281 75.6094 8.13721C75.6094 7.20622 75.8908 6.44661 76.4536 5.8584C77.0207 5.26595 77.7697 4.96973 78.7007 4.96973C79.5809 4.96973 80.2897 5.24268 80.8271 5.78857C81.3646 6.33024 81.6333 7.04964 81.6333 7.94678Z" fill="#636363"/>
<path d="M7 0C10.866 0 14 3.13401 14 7C14 10.866 10.866 14 7 14C3.13401 14 0 10.866 0 7C0 3.13401 3.13401 0 7 0ZM5.5 10L9.5 7L5.5 4V10Z" fill="#636363"/>
</svg>
